{
  "asset": {
    "version": "2.0",
    "generator": "Sketchup glTF Exporter v1.2.6 by Centaur"
  },
  "scene": 0,
  "scenes": [
    {
      "nodes": [
        0
      ]
    }
  ],
  "samplers": [
    {
    }
  ],
  "nodes": [
    {
      "name": "root",
      "children": [
        1
      ]
    },
    {
      "mesh": 0
    }
  ],
  "materials": [
    {
      "pbrMetallicRoughness": {
        "baseColorFactor": [
          0.0,
          0.2632,
          0.2632,
          1.0
        ],
        "metallicFactor": 0.1,
        "roughnessFactor": 0.9
      },
      "name": "Материал74",
      "doubleSided": true
    },
    {
      "pbrMetallicRoughness": {
        "baseColorTexture": {
          "index": 0
        },
        "metallicFactor": 0.1,
        "roughnessFactor": 0.9
      },
      "name": "vertika"
    },
    {
      "pbrMetallicRoughness": {
        "baseColorFactor": [
          0.0478,
          0.139,
          0.3993,
          1.0
        ],
        "metallicFactor": 0.1,
        "roughnessFactor": 0.9
      },
      "name": "Материал85",
      "doubleSided": true
    },
    {
      "pbrMetallicRoughness": {
        "baseColorFactor": [
          0.0,
          1.0,
          1.0,
          1.0
        ],
        "metallicFactor": 0.1,
        "roughnessFactor": 0.9
      },
      "name": "0087_Голубой"
    },
    {
      "pbrMetallicRoughness": {
        "baseColorFactor": [
          0.0,
          0.673,
          0.673,
          1.0
        ],
        "metallicFactor": 0.1,
        "roughnessFactor": 0.9
      },
      "name": "Материал71"
    },
    {
      "pbrMetallicRoughness": {
        "baseColorFactor": [
          0.021,
          0.3537,
          0.3587,
          1.0
        ],
        "metallicFactor": 0.1,
        "roughnessFactor": 0.9
      },
      "name": "Материал75"
    },
    {
      "pbrMetallicRoughness": {
        "baseColorFactor": [
          0.0,
          0.5356,
          0.5356,
          1.0
        ],
        "metallicFactor": 0.1,
        "roughnessFactor": 0.9
      },
      "name": "Материал72"
    },
    {
      "pbrMetallicRoughness": {
        "baseColorFactor": [
          0.4368,
          0.7083,
          0.7445,
          1.0
        ],
        "metallicFactor": 0.1,
        "roughnessFactor": 0.9
      },
      "name": "Материал78"
    },
    {
      "pbrMetallicRoughness": {
        "baseColorFactor": [
          0.9658,
          0.0446,
          1.0,
          1.0
        ],
        "metallicFactor": 0.1,
        "roughnessFactor": 0.9
      },
      "name": "Материал88",
      "doubleSided": true
    },
    {
      "pbrMetallicRoughness": {
        "baseColorFactor": [
          1.0,
          0.9574,
          0.9574,
          1.0
        ],
        "metallicFactor": 0.1,
        "roughnessFactor": 0.9
      },
      "name": "0010_Снежно-белый",
      "doubleSided": true
    },
    {
      "pbrMetallicRoughness": {
        "baseColorFactor": [
          0.2176,
          0.2176,
          0.2176,
          1.0
        ],
        "metallicFactor": 0.1,
        "roughnessFactor": 0.9
      },
      "name": "default material",
      "doubleSided": true
    },
    {
      "pbrMetallicRoughness": {
        "baseColorFactor": [
          0.0939,
          0.4591,
          0.4704,
          1.0
        ],
        "metallicFactor": 0.1,
        "roughnessFactor": 0.9
      },
      "name": "Материал76",
      "doubleSided": true
    },
    {
      "pbrMetallicRoughness": {
        "baseColorFactor": [
          0.0,
          0.4151,
          0.4151,
          1.0
        ],
        "metallicFactor": 0.1,
        "roughnessFactor": 0.9
      },
      "name": "Материал73"
    }
  ],
  "images": [
    {
      "bufferView": 0,
      "mimeType": "image/png"
    }
  ],
  "textures": [
    {
      "source": 0,
      "sampler": 0
    }
  ],
  "meshes": [
    {
      "primitives": [
        {
          "attributes": {
            "POSITION": 0,
            "NORMAL": 1
          },
          "indices": 5,
          "mode": 4,
          "material": 0
        },
        {
          "attributes": {
            "POSITION": 2,
            "NORMAL": 3,
            "TEXCOORD_0": 4
          },
          "indices": 6,
          "mode": 4,
          "material": 1
        },
        {
          "attributes": {
            "POSITION": 0,
            "NORMAL": 1
          },
          "indices": 7,
          "mode": 4,
          "material": 2
        },
        {
          "attributes": {
            "POSITION": 0,
            "NORMAL": 1
          },
          "indices": 8,
          "mode": 4,
          "material": 3
        },
        {
          "attributes": {
            "POSITION": 0,
            "NORMAL": 1
          },
          "indices": 9,
          "mode": 4,
          "material": 4
        },
        {
          "attributes": {
            "POSITION": 0,
            "NORMAL": 1
          },
          "indices": 10,
          "mode": 4,
          "material": 5
        },
        {
          "attributes": {
            "POSITION": 0,
            "NORMAL": 1
          },
          "indices": 11,
          "mode": 4,
          "material": 6
        },
        {
          "attributes": {
            "POSITION": 0,
            "NORMAL": 1
          },
          "indices": 12,
          "mode": 4,
          "material": 7
        },
        {
          "attributes": {
            "POSITION": 0,
            "NORMAL": 1
          },
          "indices": 13,
          "mode": 4,
          "material": 8
        },
        {
          "attributes": {
            "POSITION": 0,
            "NORMAL": 1
          },
          "indices": 14,
          "mode": 4,
          "material": 9
        },
        {
          "attributes": {
            "POSITION": 0,
            "NORMAL": 1
          },
          "indices": 15,
          "mode": 4,
          "material": 10
        },
        {
          "attributes": {
            "POSITION": 0,
            "NORMAL": 1
          },
          "indices": 16,
          "mode": 4,
          "material": 11
        },
        {
          "attributes": {
            "POSITION": 0,
            "NORMAL": 1
          },
          "indices": 17,
          "mode": 4,
          "material": 12
        }
      ]
    }
  ],
  "accessors": [
    {
      "bufferView": 1,
      "componentType": 5126,
      "count": 173,
      "type": "VEC3",
      "min": [
        -5.4497117507015105,
        -1.697446046755311,
        -3.054952103043287
      ],
      "max": [
        2.23061886309,
        3.054952103043277,
        3.3290042933723734
      ]
    },
    {
      "bufferView": 2,
      "componentType": 5126,
      "count": 173,
      "type": "VEC3",
      "min": [
        -0.548990577173518,
        -0.7071067811865479,
        -0.7071067811865471
      ],
      "max": [
        1.0,
        0.7071067811865479,
        0.7071067811865471
      ]
    },
    {
      "bufferView": 3,
      "componentType": 5126,
      "count": 115,
      "type": "VEC3",
      "min": [
        -5.4497117507015105,
        -1.697446046755311,
        -3.054952103043287
      ],
      "max": [
        2.23061886309,
        3.408505493636551,
        2.338128370963248
      ]
    },
    {
      "bufferView": 4,
      "componentType": 5126,
      "count": 115,
      "type": "VEC3",
      "min": [
        -1.0,
        -0.6164644985778357,
        -0.6146780398909512
      ],
      "max": [
        1.0,
        0.7071067811865479,
        0.7071067811865471
      ]
    },
    {
      "bufferView": 5,
      "componentType": 5126,
      "count": 115,
      "type": "VEC2",
      "min": [
        -0.03490536748668665,
        -0.3778790470473046
      ],
      "max": [
        0.883651256428915,
        1.0526745265310644
      ]
    },
    {
      "bufferView": 6,
      "componentType": 5121,
      "count": 42,
      "type": "SCALAR"
    },
    {
      "bufferView": 7,
      "componentType": 5121,
      "count": 183,
      "type": "SCALAR"
    },
    {
      "bufferView": 6,
      "componentType": 5121,
      "count": 36,
      "type": "SCALAR",
      "byteOffset": 42
    },
    {
      "bufferView": 6,
      "componentType": 5121,
      "count": 138,
      "type": "SCALAR",
      "byteOffset": 78
    },
    {
      "bufferView": 6,
      "componentType": 5121,
      "count": 6,
      "type": "SCALAR",
      "byteOffset": 216
    },
    {
      "bufferView": 6,
      "componentType": 5121,
      "count": 3,
      "type": "SCALAR",
      "byteOffset": 222
    },
    {
      "bufferView": 6,
      "componentType": 5121,
      "count": 3,
      "type": "SCALAR",
      "byteOffset": 225
    },
    {
      "bufferView": 6,
      "componentType": 5121,
      "count": 6,
      "type": "SCALAR",
      "byteOffset": 228
    },
    {
      "bufferView": 6,
      "componentType": 5121,
      "count": 9,
      "type": "SCALAR",
      "byteOffset": 234
    },
    {
      "bufferView": 6,
      "componentType": 5121,
      "count": 60,
      "type": "SCALAR",
      "byteOffset": 243
    },
    {
      "bufferView": 6,
      "componentType": 5121,
      "count": 6,
      "type": "SCALAR",
      "byteOffset": 303
    },
    {
      "bufferView": 6,
      "componentType": 5121,
      "count": 12,
      "type": "SCALAR",
      "byteOffset": 309
    },
    {
      "bufferView": 6,
      "componentType": 5121,
      "count": 6,
      "type": "SCALAR",
      "byteOffset": 321
    }
  ],
  "bufferViews": [
    {
      "buffer": 0,
      "byteLength": 1712
    },
    {
      "buffer": 0,
      "byteOffset": 1716,
      "byteLength": 2076,
      "target": 34962,
      "byteStride": 12
    },
    {
      "buffer": 0,
      "byteOffset": 3792,
      "byteLength": 2076,
      "target": 34962,
      "byteStride": 12
    },
    {
      "buffer": 0,
      "byteOffset": 5868,
      "byteLength": 1380,
      "target": 34962,
      "byteStride": 12
    },
    {
      "buffer": 0,
      "byteOffset": 7248,
      "byteLength": 1380,
      "target": 34962,
      "byteStride": 12
    },
    {
      "buffer": 0,
      "byteOffset": 8632,
      "byteLength": 920,
      "target": 34962,
      "byteStride": 8
    },
    {
      "buffer": 0,
      "byteOffset": 9552,
      "byteLength": 327,
      "target": 34963
    },
    {
      "buffer": 0,
      "byteOffset": 9879,
      "byteLength": 183,
      "target": 34963
    }
  ],
  "buffers": [
    {
      "uri": "data:application/octet-stream;base64,",
      "byteLength": 10062
    }
  ]
}